<?xml version="1.0" encoding="utf-8" standalone="no"?>
<!DOCTYPE svg PUBLIC "-//W3C//DTD SVG 1.1//EN"
  "http://www.w3.org/Graphics/SVG/1.1/DTD/svg11.dtd">
<!-- Created with matplotlib (https://matplotlib.org/) -->
<svg height="345.6pt" version="1.1" viewBox="0 0 460.8 345.6" width="460.8pt" xmlns="http://www.w3.org/2000/svg" xmlns:xlink="http://www.w3.org/1999/xlink">
 <defs>
  <style type="text/css">
*{stroke-linecap:butt;stroke-linejoin:round;}
  </style>
 </defs>
 <g id="figure_1">
  <g id="patch_1">
   <path d="M 0 345.6 
L 460.8 345.6 
L 460.8 0 
L 0 0 
z
" style="fill:#ffffff;"/>
  </g>
  <g id="axes_1">
   <g id="patch_2">
    <path d="M 57.6 307.584 
L 414.72 307.584 
L 414.72 41.472 
L 57.6 41.472 
z
" style="fill:#ffffff;"/>
   </g>
   <g id="patch_3">
    <path clip-path="url(#p12bbb91b7d)" d="M 88.589752 307.584 
L 105.950958 307.584 
L 105.950958 293.504 
L 88.589752 293.504 
z
" style="fill:#0c2b36;opacity:0.8;stroke:#808080;stroke-linejoin:miter;"/>
   </g>
   <g id="patch_4">
    <path clip-path="url(#p12bbb91b7d)" d="M 105.950958 307.584 
L 123.312163 307.584 
L 123.312163 300.544 
L 105.950958 300.544 
z
" style="fill:#0c2b36;opacity:0.8;stroke:#808080;stroke-linejoin:miter;"/>
   </g>
   <g id="patch_5">
    <path clip-path="url(#p12bbb91b7d)" d="M 123.312163 307.584 
L 140.673369 307.584 
L 140.673369 258.304 
L 123.312163 258.304 
z
" style="fill:#0c2b36;opacity:0.8;stroke:#808080;stroke-linejoin:miter;"/>
   </g>
   <g id="patch_6">
    <path clip-path="url(#p12bbb91b7d)" d="M 140.673369 307.584 
L 158.034575 307.584 
L 158.034575 209.024 
L 140.673369 209.024 
z
" style="fill:#0c2b36;opacity:0.8;stroke:#808080;stroke-linejoin:miter;"/>
   </g>
   <g id="patch_7">
    <path clip-path="url(#p12bbb91b7d)" d="M 158.034575 307.584 
L 175.39578 307.584 
L 175.39578 184.384 
L 158.034575 184.384 
z
" style="fill:#0c2b36;opacity:0.8;stroke:#808080;stroke-linejoin:miter;"/>
   </g>
   <g id="patch_8">
    <path clip-path="url(#p12bbb91b7d)" d="M 175.39578 307.584 
L 192.756986 307.584 
L 192.756986 156.224 
L 175.39578 156.224 
z
" style="fill:#0c2b36;opacity:0.8;stroke:#808080;stroke-linejoin:miter;"/>
   </g>
   <g id="patch_9">
    <path clip-path="url(#p12bbb91b7d)" d="M 192.756986 307.584 
L 210.118192 307.584 
L 210.118192 71.744 
L 192.756986 71.744 
z
" style="fill:#0c2b36;opacity:0.8;stroke:#808080;stroke-linejoin:miter;"/>
   </g>
   <g id="patch_10">
    <path clip-path="url(#p12bbb91b7d)" d="M 210.118192 307.584 
L 227.479397 307.584 
L 227.479397 113.984 
L 210.118192 113.984 
z
" style="fill:#0c2b36;opacity:0.8;stroke:#808080;stroke-linejoin:miter;"/>
   </g>
   <g id="patch_11">
    <path clip-path="url(#p12bbb91b7d)" d="M 227.479397 307.584 
L 244.840603 307.584 
L 244.840603 54.144 
L 227.479397 54.144 
z
" style="fill:#0c2b36;opacity:0.8;stroke:#808080;stroke-linejoin:miter;"/>
   </g>
   <g id="patch_12">
    <path clip-path="url(#p12bbb91b7d)" d="M 244.840603 307.584 
L 262.201808 307.584 
L 262.201808 117.504 
L 244.840603 117.504 
z
" style="fill:#0c2b36;opacity:0.8;stroke:#808080;stroke-linejoin:miter;"/>
   </g>
   <g id="patch_13">
    <path clip-path="url(#p12bbb91b7d)" d="M 262.201808 307.584 
L 279.563014 307.584 
L 279.563014 152.704 
L 262.201808 152.704 
z
" style="fill:#0c2b36;opacity:0.8;stroke:#808080;stroke-linejoin:miter;"/>
   </g>
   <g id="patch_14">
    <path clip-path="url(#p12bbb91b7d)" d="M 279.563014 307.584 
L 296.92422 307.584 
L 296.92422 170.304 
L 279.563014 170.304 
z
" style="fill:#0c2b36;opacity:0.8;stroke:#808080;stroke-linejoin:miter;"/>
   </g>
   <g id="patch_15">
    <path clip-path="url(#p12bbb91b7d)" d="M 296.92422 307.584 
L 314.285425 307.584 
L 314.285425 233.664 
L 296.92422 233.664 
z
" style="fill:#0c2b36;opacity:0.8;stroke:#808080;stroke-linejoin:miter;"/>
   </g>
   <g id="patch_16">
    <path clip-path="url(#p12bbb91b7d)" d="M 314.285425 307.584 
L 331.646631 307.584 
L 331.646631 279.424 
L 314.285425 279.424 
z
" style="fill:#0c2b36;opacity:0.8;stroke:#808080;stroke-linejoin:miter;"/>
   </g>
   <g id="patch_17">
    <path clip-path="url(#p12bbb91b7d)" d="M 331.646631 307.584 
L 349.007837 307.584 
L 349.007837 275.904 
L 331.646631 275.904 
z
" style="fill:#0c2b36;opacity:0.8;stroke:#808080;stroke-linejoin:miter;"/>
   </g>
   <g id="patch_18">
    <path clip-path="url(#p12bbb91b7d)" d="M 349.007837 307.584 
L 366.369042 307.584 
L 366.369042 304.064 
L 349.007837 304.064 
z
" style="fill:#0c2b36;opacity:0.8;stroke:#808080;stroke-linejoin:miter;"/>
   </g>
   <g id="patch_19">
    <path clip-path="url(#p12bbb91b7d)" d="M 366.369042 307.584 
L 383.730248 307.584 
L 383.730248 293.504 
L 366.369042 293.504 
z
" style="fill:#0c2b36;opacity:0.8;stroke:#808080;stroke-linejoin:miter;"/>
   </g>
   <g id="matplotlib.axis_1"/>
   <g id="matplotlib.axis_2"/>
   <g id="line2d_1">
    <path clip-path="url(#p12bbb91b7d)" d="M 73.832727 304.752159 
L 77.112066 304.170848 
L 80.391405 303.486741 
L 83.670744 302.685281 
L 86.950083 301.750586 
L 90.229421 300.665464 
L 93.50876 299.411464 
L 96.788099 297.96897 
L 100.067438 296.317327 
L 103.346777 294.435026 
L 106.626116 292.299921 
L 109.905455 289.889518 
L 113.184793 287.181301 
L 116.464132 284.15312 
L 119.743471 280.783633 
L 123.02281 277.052785 
L 126.302149 272.942345 
L 129.581488 268.43647 
L 132.860826 263.522297 
L 136.140165 258.190547 
L 139.419504 252.436137 
L 142.698843 246.258771 
L 145.978182 239.663502 
L 149.257521 232.661246 
L 152.53686 225.269225 
L 155.816198 217.511327 
L 159.095537 209.418362 
L 162.374876 201.028191 
L 165.654215 192.38573 
L 168.933554 183.542796 
L 172.212893 174.557802 
L 175.492231 165.495288 
L 178.77157 156.425294 
L 182.050909 147.422567 
L 185.330248 138.565628 
L 188.609587 129.935692 
L 191.888926 121.615483 
L 195.168264 113.687947 
L 198.447603 106.234896 
L 201.726942 99.335623 
L 205.006281 93.065506 
L 208.28562 87.494642 
L 211.564959 82.686545 
L 214.844298 78.696948 
L 218.123636 75.572718 
L 221.402975 73.350951 
L 224.682314 72.058232 
L 227.961653 71.710105 
L 231.240992 72.310768 
L 234.520331 73.852983 
L 237.799669 76.318223 
L 241.079008 79.677044 
L 244.358347 83.889666 
L 247.637686 88.906764 
L 250.917025 94.670421 
L 254.196364 101.115247 
L 257.475702 108.169607 
L 260.755041 115.756946 
L 264.03438 123.797163 
L 267.313719 132.208008 
L 270.593058 140.906465 
L 273.872397 149.810091 
L 277.151736 158.838274 
L 280.431074 167.913401 
L 283.710413 176.961892 
L 286.989752 185.915104 
L 290.269091 194.710071 
L 293.54843 203.290101 
L 296.827769 211.605191 
L 300.107107 219.612297 
L 303.386446 227.27544 
L 306.665785 234.565676 
L 309.945124 241.460919 
L 313.224463 247.945668 
L 316.503802 254.010616 
L 319.78314 259.652185 
L 323.062479 264.872006 
L 326.341818 269.676336 
L 329.621157 274.07547 
L 332.900496 278.083123 
L 336.179835 281.715832 
L 339.459174 284.992368 
L 342.738512 287.933178 
L 346.017851 290.559865 
L 349.29719 292.894719 
L 352.576529 294.960283 
L 355.855868 296.778991 
L 359.135207 298.372843 
L 362.414545 299.763141 
L 365.693884 300.970278 
L 368.973223 302.013572 
L 372.252562 302.911144 
L 375.531901 303.679841 
L 378.81124 304.335195 
L 382.090579 304.891405 
L 385.369917 305.361357 
L 388.649256 305.75666 
L 391.928595 306.087694 
L 395.207934 306.363683 
L 398.487273 306.592766 
" style="fill:none;stroke:#e04d4f;stroke-linecap:square;stroke-width:4;"/>
   </g>
  </g>
 </g>
 <defs>
  <clipPath id="p12bbb91b7d">
   <rect height="266.112" width="357.12" x="57.6" y="41.472"/>
  </clipPath>
 </defs>
</svg>
