<?xml version="1.0" encoding="utf-8" standalone="no"?>
<!DOCTYPE svg PUBLIC "-//W3C//DTD SVG 1.1//EN"
  "http://www.w3.org/Graphics/SVG/1.1/DTD/svg11.dtd">
<!-- Created with matplotlib (https://matplotlib.org/) -->
<svg height="345.6pt" version="1.1" viewBox="0 0 460.8 345.6" width="460.8pt" xmlns="http://www.w3.org/2000/svg" xmlns:xlink="http://www.w3.org/1999/xlink">
 <defs>
  <style type="text/css">
*{stroke-linecap:butt;stroke-linejoin:round;}
  </style>
 </defs>
 <g id="figure_1">
  <g id="patch_1">
   <path d="M 0 345.6 
L 460.8 345.6 
L 460.8 0 
L 0 0 
z
" style="fill:#ffffff;"/>
  </g>
  <g id="axes_1">
   <g id="patch_2">
    <path d="M 57.6 307.584 
L 414.72 307.584 
L 414.72 41.472 
L 57.6 41.472 
z
" style="fill:#ffffff;"/>
   </g>
   <g id="patch_3">
    <path clip-path="url(#p826e77695c)" d="M 88.589752 307.584 
L 121.38314 307.584 
L 121.38314 295.570134 
L 88.589752 295.570134 
z
" style="fill:#0c2b36;opacity:0.8;stroke:#808080;stroke-linejoin:miter;"/>
   </g>
   <g id="patch_4">
    <path clip-path="url(#p826e77695c)" d="M 121.38314 307.584 
L 154.176529 307.584 
L 154.176529 239.505426 
L 121.38314 239.505426 
z
" style="fill:#0c2b36;opacity:0.8;stroke:#808080;stroke-linejoin:miter;"/>
   </g>
   <g id="patch_5">
    <path clip-path="url(#p826e77695c)" d="M 154.176529 307.584 
L 186.969917 307.584 
L 186.969917 163.417608 
L 154.176529 163.417608 
z
" style="fill:#0c2b36;opacity:0.8;stroke:#808080;stroke-linejoin:miter;"/>
   </g>
   <g id="patch_6">
    <path clip-path="url(#p826e77695c)" d="M 186.969917 307.584 
L 219.763306 307.584 
L 219.763306 81.322857 
L 186.969917 81.322857 
z
" style="fill:#0c2b36;opacity:0.8;stroke:#808080;stroke-linejoin:miter;"/>
   </g>
   <g id="patch_7">
    <path clip-path="url(#p826e77695c)" d="M 219.763306 307.584 
L 252.556694 307.584 
L 252.556694 61.299747 
L 219.763306 61.299747 
z
" style="fill:#0c2b36;opacity:0.8;stroke:#808080;stroke-linejoin:miter;"/>
   </g>
   <g id="patch_8">
    <path clip-path="url(#p826e77695c)" d="M 252.556694 307.584 
L 285.350083 307.584 
L 285.350083 141.392187 
L 252.556694 141.392187 
z
" style="fill:#0c2b36;opacity:0.8;stroke:#808080;stroke-linejoin:miter;"/>
   </g>
   <g id="patch_9">
    <path clip-path="url(#p826e77695c)" d="M 285.350083 307.584 
L 318.143471 307.584 
L 318.143471 211.473072 
L 285.350083 211.473072 
z
" style="fill:#0c2b36;opacity:0.8;stroke:#808080;stroke-linejoin:miter;"/>
   </g>
   <g id="patch_10">
    <path clip-path="url(#p826e77695c)" d="M 318.143471 307.584 
L 350.93686 307.584 
L 350.93686 275.547024 
L 318.143471 275.547024 
z
" style="fill:#0c2b36;opacity:0.8;stroke:#808080;stroke-linejoin:miter;"/>
   </g>
   <g id="patch_11">
    <path clip-path="url(#p826e77695c)" d="M 350.93686 307.584 
L 383.730248 307.584 
L 383.730248 297.572445 
L 350.93686 297.572445 
z
" style="fill:#0c2b36;opacity:0.8;stroke:#808080;stroke-linejoin:miter;"/>
   </g>
   <g id="matplotlib.axis_1"/>
   <g id="matplotlib.axis_2"/>
   <g id="line2d_1">
    <path clip-path="url(#p826e77695c)" d="M 73.832727 304.541265 
L 77.112066 303.916663 
L 80.391405 303.181608 
L 83.670744 302.320462 
L 86.950083 301.316158 
L 90.229421 300.150224 
L 93.50876 298.802835 
L 96.788099 297.252915 
L 100.067438 295.478271 
L 103.346777 293.45579 
L 106.626116 291.161679 
L 109.905455 288.571767 
L 113.184793 285.661862 
L 116.464132 282.408166 
L 119.743471 278.787744 
L 123.02281 274.77905 
L 126.302149 270.362496 
L 129.581488 265.521058 
L 132.860826 260.240914 
L 136.140165 254.512096 
L 139.419504 248.329141 
L 142.698843 241.691731 
L 145.978182 234.605297 
L 149.257521 227.081565 
L 152.53686 219.139042 
L 155.816198 210.803395 
L 159.095537 202.107727 
L 162.374876 193.09272 
L 165.654215 183.806634 
L 168.933554 174.305145 
L 172.212893 164.651016 
L 175.492231 154.913594 
L 178.77157 145.168136 
L 182.050909 135.494954 
L 185.330248 125.978416 
L 188.609587 116.705788 
L 191.888926 107.765953 
L 195.168264 99.248034 
L 198.447603 91.239936 
L 201.726942 83.826857 
L 205.006281 77.089789 
L 208.28562 71.104049 
L 211.564959 65.937882 
L 214.844298 61.65117 
L 218.123636 58.294271 
L 221.402975 55.907044 
L 224.682314 54.518052 
L 227.961653 54.144 
L 231.240992 54.789396 
L 234.520331 56.446463 
L 237.799669 59.095296 
L 241.079008 62.704256 
L 244.358347 67.230603 
L 247.637686 72.621336 
L 250.917025 78.814226 
L 254.196364 85.739014 
L 257.475702 93.31873 
L 260.755041 101.471117 
L 264.03438 110.110108 
L 267.313719 119.14733 
L 270.593058 128.493582 
L 273.872397 138.060282 
L 277.151736 147.760816 
L 280.431074 157.51179 
L 283.710413 167.234145 
L 286.989752 176.854124 
L 290.269091 186.304074 
L 293.54843 195.52308 
L 296.827769 204.457414 
L 300.107107 213.060829 
L 303.386446 221.294666 
L 306.665785 229.127823 
L 309.945124 236.536572 
L 313.224463 243.504256 
L 316.503802 250.020875 
L 319.78314 256.082586 
L 323.062479 261.691139 
L 326.341818 266.85326 
L 329.621157 271.580007 
L 332.900496 275.88612 
L 336.179835 279.789366 
L 339.459174 283.309914 
L 342.738512 286.469733 
L 346.017851 289.292037 
L 349.29719 291.800772 
L 352.576529 294.020164 
L 355.855868 295.974316 
L 359.135207 297.686865 
L 362.414545 299.180702 
L 365.693884 300.477738 
L 368.973223 301.598728 
L 372.252562 302.563145 
L 375.531901 303.389089 
L 378.81124 304.093248 
L 382.090579 304.690881 
L 385.369917 305.195831 
L 388.649256 305.620573 
L 391.928595 305.97626 
L 395.207934 306.272803 
L 398.487273 306.518947 
" style="fill:none;stroke:#e04d4f;stroke-linecap:square;stroke-width:4;"/>
   </g>
  </g>
 </g>
 <defs>
  <clipPath id="p826e77695c">
   <rect height="266.112" width="357.12" x="57.6" y="41.472"/>
  </clipPath>
 </defs>
</svg>
